<svg xmlns="http://www.w3.org/2000/svg" viewBox="0 0 32 32" role="img" aria-label="ne_cybersec">
  <defs>
    <linearGradient id="g" x1="0" y1="0" x2="1" y2="1">
      <stop offset="0" stop-color="#5cc2e0"/>
      <stop offset=".45" stop-color="#c7e04c"/>
      <stop offset="1" stop-color="#e8604f"/>
    </linearGradient>
  </defs>
  <rect width="32" height="32" rx="8" fill="url(#g)"/>
  <g fill="#13141b">
    <rect x="5" y="19" width="22" height="7.2"/>
    <rect x="6" y="13" width="4.6" height="7"/>
    <rect x="21.4" y="13" width="4.6" height="7"/>
    <rect x="12.4" y="9" width="7.2" height="11.5"/>
    <rect x="6" y="11.4" width="1.4" height="1.9"/><rect x="8" y="11.4" width="1.4" height="1.9"/><rect x="10" y="11.4" width="0.9" height="1.9"/>
    <rect x="21.4" y="11.4" width="1.4" height="1.9"/><rect x="23.4" y="11.4" width="1.4" height="1.9"/><rect x="25.1" y="11.4" width="0.9" height="1.9"/>
    <rect x="12.4" y="7.4" width="1.7" height="1.9"/><rect x="15.15" y="7.4" width="1.7" height="1.9"/><rect x="17.9" y="7.4" width="1.7" height="1.9"/>
    <rect x="15.4" y="4.2" width="1.2" height="4.2"/>
  </g>
  <path fill="#e8604f" d="M16 1.7l.98 2.0 2.2.2-1.66 1.48.52 2.16L16 6.36l-2.04 1.18.52-2.16L12.82 3.9l2.2-.2z"/>
</svg>
